<?xml version="1.0" standalone="no"?>
<!DOCTYPE svg PUBLIC "-//W3C//DTD SVG 20010904//EN"
 "http://www.w3.org/TR/2001/REC-SVG-20010904/DTD/svg10.dtd">
<svg version="1.0" xmlns="http://www.w3.org/2000/svg"
 width="375.000000pt" height="289.000000pt" viewBox="0 0 375.000000 289.000000"
 preserveAspectRatio="xMidYMid meet">

<g transform="translate(0.000000,289.000000) scale(0.100000,-0.100000)"
fill="#000000" stroke="none">
<path d="M1682 2799 c-18 -6 -54 -32 -80 -58 -36 -36 -171 -121 -552 -346
-278 -164 -522 -309 -544 -322 l-38 -25 22 -23 c21 -23 24 -23 52 -9 16 8 269
161 563 339 294 179 538 325 542 325 4 0 29 -21 55 -47 l48 -47 48 47 c26 26
51 47 55 47 4 0 248 -146 543 -325 294 -179 547 -331 563 -339 27 -14 30 -14
52 11 13 14 20 27 14 30 -5 2 -252 147 -548 322 -397 235 -550 331 -582 364
-59 62 -128 80 -213 56z"/>
<path d="M1225 2195 l-40 -24 435 -1 c408 0 437 -1 466 -19 41 -25 67 -83 72
-161 5 -85 -11 -141 -52 -185 l-33 -35 -467 0 c-256 0 -466 2 -466 4 0 2 12
25 27 51 38 68 44 177 13 257 -23 63 -30 71 -48 59 -9 -5 -7 -17 7 -47 48 -99
36 -207 -35 -310 l-44 -64 623 2 623 3 41 27 c62 41 96 117 96 216 -1 117 -13
138 -120 200 l-91 52 -483 0 -484 0 -40 -25z"/>
<path d="M1089 1631 c100 -126 102 -280 5 -407 l-34 -44 621 0 c684 0 648 -3
707 64 73 84 74 270 1 359 -57 70 -28 67 -714 67 l-617 0 31 -39z m1016 -44
c60 -60 75 -193 30 -283 -44 -88 -20 -84 -539 -84 -251 0 -456 2 -456 4 0 2
12 28 28 57 21 41 28 70 31 131 3 70 0 84 -27 143 l-31 65 466 0 465 0 33 -33z"/>
<path d="M1226 1074 c-14 -13 -16 -53 -16 -278 0 -190 3 -265 12 -274 16 -16
43 -15 57 2 10 12 16 12 39 0 15 -8 44 -14 64 -14 73 0 127 36 159 105 68 148
-63 312 -209 262 l-42 -15 0 104 c0 92 -2 104 -19 114 -25 13 -27 13 -45 -6z
m197 -275 c69 -32 75 -163 8 -199 -107 -56 -194 105 -100 184 33 28 55 32 92
15z"/>
<path d="M671 1036 c-8 -9 -11 -88 -9 -267 l3 -254 150 0 c149 0 150 0 153 23
7 45 -12 52 -129 52 l-109 0 0 218 c0 218 -4 242 -36 242 -6 0 -17 -6 -23 -14z"/>
<path d="M1040 995 c-26 -32 13 -81 48 -59 24 16 27 45 6 61 -23 17 -39 16
-54 -2z"/>
<path d="M1041 876 c-8 -9 -11 -66 -9 -181 3 -147 5 -169 21 -179 12 -8 22 -8
35 0 15 10 17 32 20 177 2 140 0 167 -13 181 -20 20 -39 20 -54 2z"/>
<path d="M1671 876 c-8 -9 -11 -68 -9 -187 l3 -174 24 -3 c41 -6 51 20 51 139
0 122 11 146 70 158 28 5 36 12 38 32 5 40 -21 55 -71 42 -26 -7 -48 -8 -59
-2 -23 12 -34 11 -47 -5z"/>
<path d="M2016 880 c-35 -11 -82 -54 -103 -95 -9 -16 -17 -55 -17 -85 -2 -130
117 -223 230 -179 20 7 34 7 50 -1 12 -7 30 -10 40 -8 18 3 19 16 22 177 2
174 -2 201 -34 201 -7 0 -19 -7 -27 -15 -14 -13 -19 -13 -51 0 -39 17 -66 18
-110 5z m93 -84 c33 -18 51 -54 51 -107 0 -85 -96 -131 -153 -73 -50 49 -44
131 11 174 29 24 53 25 91 6z"/>
<path d="M2381 876 c-8 -9 -11 -66 -9 -181 3 -147 5 -169 21 -179 12 -8 22 -8
35 0 14 9 18 31 22 125 6 140 20 169 80 169 23 0 42 32 34 54 -9 23 -48 30
-86 17 -21 -8 -35 -8 -42 -1 -14 14 -42 12 -55 -4z"/>
<path d="M2608 879 c-10 -5 -18 -15 -18 -22 0 -7 25 -81 56 -165 l56 -152 -18
-53 c-16 -42 -26 -55 -57 -70 -20 -9 -37 -24 -37 -31 0 -34 13 -46 50 -46 41
0 80 30 98 78 38 94 152 423 152 435 0 22 -26 39 -49 32 -14 -4 -30 -35 -57
-110 -21 -58 -41 -101 -45 -97 -3 4 -21 48 -39 97 -44 120 -51 128 -92 104z"/>
<path d="M1044 315 c0 -55 1 -76 3 -47 2 29 2 74 0 100 -2 26 -3 2 -3 -53z"/>
<path d="M1790 390 c0 -5 5 -10 10 -10 6 0 10 5 10 10 0 6 -4 10 -10 10 -5 0
-10 -4 -10 -10z"/>
<path d="M1110 340 c-41 -41 -12 -120 43 -120 33 0 57 30 57 73 0 59 -59 88
-100 47z m69 -14 c7 -8 11 -30 9 -48 -2 -26 -8 -34 -26 -36 -44 -7 -66 34 -42
79 13 22 43 25 59 5z"/>
<path d="M1250 291 c0 -82 17 -97 22 -18 2 43 7 54 26 62 12 5 22 13 22 17 0
11 -12 10 -30 -2 -9 -5 -19 -5 -27 2 -10 8 -13 -4 -13 -61z"/>
<path d="M1368 343 c-33 -37 -30 -91 6 -115 16 -11 64 -10 71 2 4 6 -8 10 -29
10 -24 0 -38 6 -45 19 -14 25 -5 31 46 31 41 0 44 2 38 23 -14 45 -60 61 -87
30z m60 -25 c3 -14 -3 -18 -27 -18 -29 0 -41 17 -24 34 13 13 48 1 51 -16z"/>
<path d="M1525 350 c-3 -5 -12 -7 -20 -3 -12 4 -15 -7 -15 -61 0 -37 4 -66 10
-66 6 0 10 22 10 48 0 50 12 72 41 72 22 0 29 -20 29 -78 0 -61 18 -43 22 23
3 46 5 50 28 50 23 0 25 -4 28 -57 4 -77 22 -75 22 2 0 54 -3 62 -24 71 -17 8
-29 8 -46 -1 -16 -9 -25 -9 -33 -1 -14 14 -44 14 -52 1z"/>
<path d="M1790 291 c0 -41 4 -71 10 -71 6 0 10 28 10 64 0 36 -4 68 -10 71 -6
4 -10 -20 -10 -64z"/>
<path d="M1891 351 c-8 -5 -20 -7 -28 -4 -10 4 -13 -15 -13 -91 0 -57 4 -96
10 -96 6 0 10 15 10 34 0 34 1 35 34 29 29 -4 37 -1 51 21 38 57 -12 140 -64
107z m51 -36 c16 -35 -3 -75 -36 -75 -25 0 -36 16 -36 54 0 48 53 63 72 21z"/>
<path d="M2012 348 c-23 -23 -13 -48 23 -64 19 -8 35 -21 35 -29 0 -10 -11
-15 -35 -15 -19 0 -35 -4 -35 -10 0 -5 15 -10 34 -10 64 0 73 54 14 81 -41 18
-41 33 0 37 18 2 30 8 27 13 -9 13 -49 11 -63 -3z"/>
<path d="M2128 354 c-12 -11 -10 -92 2 -115 9 -15 20 -19 55 -17 l45 3 0 70
c0 79 -17 79 -22 0 -3 -48 -4 -50 -33 -50 -29 0 -30 1 -35 58 -3 33 -8 55 -12
51z"/>
<path d="M2281 291 c-1 -84 16 -88 21 -6 3 46 5 50 28 50 23 0 25 -4 28 -57 4
-70 22 -78 22 -10 0 50 12 72 41 72 21 0 29 -20 29 -76 0 -28 4 -43 10 -39 11
7 13 67 4 103 -7 26 -48 40 -68 23 -10 -9 -20 -9 -39 0 -18 8 -30 8 -45 0 -15
-8 -22 -8 -25 2 -3 6 -6 -22 -6 -62z"/>
</g>
</svg>
